<svg width="1949" height="1972" xmlns="http://www.w3.org/2000/svg" xmlns:xlink="http://www.w3.org/1999/xlink" xml:space="preserve" overflow="hidden"><g transform="translate(-195 -189)"><rect x="1474.5" y="979.5" width="667" height="431" stroke="#A6A6A6" stroke-width="4.58333" stroke-miterlimit="8" fill="#F2F2F2"/><text font-family="Arial,Arial_MSFontService,sans-serif" font-weight="400" font-size="50" transform="matrix(6.12323e-17 -1 1 6.12323e-17 1548.87 1381)">MONTE</text><text font-family="Arial,Arial_MSFontService,sans-serif" font-weight="400" font-size="50" transform="matrix(6.12323e-17 -1 1 6.12323e-17 1548.87 1199)">-</text><text font-family="Arial,Arial_MSFontService,sans-serif" font-weight="400" font-size="50" transform="matrix(6.12323e-17 -1 1 6.12323e-17 1548.87 1182)">CARLO </text><text font-family="Arial,Arial_MSFontService,sans-serif" font-weight="400" font-size="50" transform="matrix(6.12323e-17 -1 1 6.12323e-17 1609.87 1247)">OPT</text><rect x="197.5" y="191.5" width="1944" height="619" stroke="#A6A6A6" stroke-width="4.58333" stroke-miterlimit="8" fill="#F2F2F2"/><text font-family="Arial,Arial_MSFontService,sans-serif" font-weight="400" font-size="50" transform="matrix(6.12323e-17 -1 1 6.12323e-17 272.382 721)">PREPROCESSING</text><rect x="309" y="388" width="318" height="89" stroke="#4D4943" stroke-width="2.29167" stroke-miterlimit="8" fill="#CFE096"/><text font-family="Monospac821 BT,Monospac821 BT_MSFontService,sans-serif" font-weight="400" font-size="28" transform="matrix(1 0 0 1 343.388 443)">create_fan_data</text><rect x="668" y="388" width="319" height="89" stroke="#4D4943" stroke-width="2.29167" stroke-miterlimit="8" fill="#CFE096"/><text font-family="Monospac821 BT,Monospac821 BT_MSFontService,sans-serif" font-weight="400" font-size="28" transform="matrix(1 0 0 1 702.557 427)">create_duct_dat</text><text font-family="Monospac821 BT,Monospac821 BT_MSFontService,sans-serif" font-weight="400" font-size="28" transform="matrix(1 0 0 1 818.86 460)">a</text><rect x="1027" y="388" width="319" height="89" stroke="#4D4943" stroke-width="2.29167" stroke-miterlimit="8" fill="#CFE096"/><text font-family="Monospac821 BT,Monospac821 BT_MSFontService,sans-serif" font-weight="400" font-size="28" transform="matrix(1 0 0 1 1061.73 427)">create_network_</text><text font-family="Monospac821 BT,Monospac821 BT_MSFontService,sans-serif" font-weight="400" font-size="28" transform="matrix(1 0 0 1 1153.1 460)">data</text><rect x="1745" y="388" width="319" height="89" stroke="#4D4943" stroke-width="2.29167" stroke-miterlimit="8" fill="#CFE096"/><text font-family="Monospac821 BT,Monospac821 BT_MSFontService,sans-serif" font-weight="400" font-size="28" transform="matrix(1 0 0 1 1780.07 427)">create_scenario</text><text font-family="Monospac821 BT,Monospac821 BT_MSFontService,sans-serif" font-weight="400" font-size="28" transform="matrix(1 0 0 1 1863.14 460)">_data</text><path d="M374 238C374 228.611 381.611 221 391 221L545 221C554.389 221 562 228.611 562 238L562 306C562 315.389 554.389 323 545 323L391 323C381.611 323 374 315.389 374 306Z" stroke="#4D4943" stroke-width="2.29167" stroke-miterlimit="8" fill="#12B3FF" fill-rule="evenodd" fill-opacity="0.94902"/><text font-family="Monospac821 BT,Monospac821 BT_MSFontService,sans-serif" font-weight="400" font-size="28" transform="matrix(1 0 0 1 434.768 283)">Fan*</text><path d="M1764 238.001C1764 228.611 1771.61 221 1781 221L2028 221C2037.39 221 2045 228.611 2045 238.001L2045 306C2045 315.389 2037.39 323 2028 323L1781 323C1771.61 323 1764 315.389 1764 306Z" stroke="#4D4943" stroke-width="2.29167" stroke-miterlimit="8" fill="#12B3FF" fill-rule="evenodd" fill-opacity="0.94902"/><text font-family="Monospac821 BT,Monospac821 BT_MSFontService,sans-serif" font-weight="400" font-size="28" transform="matrix(1 0 0 1 1804.99 266)">raw_load_cas</text><text font-family="Monospac821 BT,Monospac821 BT_MSFontService,sans-serif" font-weight="400" font-size="28" transform="matrix(1 0 0 1 1888.06 299)">es</text><path d="M312 550.834C312 541.537 319.537 534 328.834 534L607.166 534C616.463 534 624 541.537 624 550.834L624 618.166C624 627.463 616.463 635 607.166 635L328.834 635C319.537 635 312 627.463 312 618.166Z" stroke="#4D4943" stroke-width="2.29167" stroke-miterlimit="8" fill="#12B3FF" fill-rule="evenodd" fill-opacity="0.94902"/><text font-family="Monospac821 BT,Monospac821 BT_MSFontService,sans-serif" font-weight="400" font-size="28" transform="matrix(1 0 0 1 351.695 578)">fan_power_loss</text><text font-family="Monospac821 BT,Monospac821 BT_MSFontService,sans-serif" font-weight="400" font-size="28" transform="matrix(1 0 0 1 368.309 611)">_hyperplanes</text><path d="M678 550.833C678 541.536 685.536 534 694.833 534L959.166 534C968.463 534 976 541.536 976 550.833L976 618.166C976 627.463 968.463 635 959.166 635L694.833 635C685.536 635 678 627.463 678 618.166Z" stroke="#4D4943" stroke-width="2.29167" stroke-miterlimit="8" fill="#12B3FF" fill-rule="evenodd" fill-opacity="0.94902"/><text font-family="Monospac821 BT,Monospac821 BT_MSFontService,sans-serif" font-weight="400" font-size="28" transform="matrix(1 0 0 1 719.172 578)">duct_hyperpla</text><text font-family="Monospac821 BT,Monospac821 BT_MSFontService,sans-serif" font-weight="400" font-size="28" transform="matrix(1 0 0 1 802.245 611)">nes</text><path d="M1037 550.833C1037 541.536 1044.54 534 1053.83 534L1318.17 534C1327.46 534 1335 541.536 1335 550.833L1335 618.166C1335 627.463 1327.46 635 1318.17 635L1053.83 635C1044.54 635 1037 627.463 1037 618.166Z" stroke="#4D4943" stroke-width="2.29167" stroke-miterlimit="8" fill="#12B3FF" fill-rule="evenodd" fill-opacity="0.94902"/><text font-family="Monospac821 BT,Monospac821 BT_MSFontService,sans-serif" font-weight="400" font-size="28" transform="matrix(1 0 0 1 1128.19 595)">network</text><path d="M1745 550.833C1745 541.536 1752.54 534 1761.83 534L2047.17 534C2056.46 534 2064 541.536 2064 550.833L2064 618.166C2064 627.463 2056.46 635 2047.17 635L1761.83 635C1752.54 635 1745 627.463 1745 618.166Z" stroke="#4D4943" stroke-width="2.29167" stroke-miterlimit="8" fill="#12B3FF" fill-rule="evenodd" fill-opacity="0.94902"/><text font-family="Monospac821 BT,Monospac821 BT_MSFontService,sans-serif" font-weight="400" font-size="28" transform="matrix(1 0 0 1 1788.37 578)">processed_load</text><text font-family="Monospac821 BT,Monospac821 BT_MSFontService,sans-serif" font-weight="400" font-size="28" transform="matrix(1 0 0 1 1854.83 611)">_cases</text><path d="M1396 550.834C1396 541.537 1403.54 534 1412.83 534L1678.17 534C1687.46 534 1695 541.537 1695 550.834L1695 618.166C1695 627.463 1687.46 635 1678.17 635L1412.83 635C1403.54 635 1396 627.463 1396 618.166Z" stroke="#4D4943" stroke-width="2.29167" stroke-miterlimit="8" fill="#12B3FF" fill-rule="evenodd" fill-opacity="0.94902"/><text font-family="Monospac821 BT,Monospac821 BT_MSFontService,sans-serif" font-weight="400" font-size="28" transform="matrix(1 0 0 1 1437.51 595)">fans_on_edges</text><rect x="1027" y="690" width="319" height="89" stroke="#4D4943" stroke-width="2.29167" stroke-miterlimit="8" fill="#CFE096"/><text font-family="Monospac821 BT,Monospac821 BT_MSFontService,sans-serif" font-weight="400" font-size="28" transform="matrix(1 0 0 1 1069.79 745)">merge_all_data</text><path d="M416 852.833C416 841.327 425.327 832 436.834 832L693.166 832C704.672 832 714 841.327 714 852.833L714 936.166C714 947.672 704.672 957 693.166 957L436.834 957C425.327 957 416 947.672 416 936.166Z" stroke="#4D4943" stroke-width="2.29167" stroke-miterlimit="8" fill="#12B3FF" fill-rule="evenodd" fill-opacity="0.94902"/><text font-family="Monospac821 BT,Monospac821 BT_MSFontService,sans-serif" font-weight="400" font-size="28" transform="matrix(1 0 0 1 465.054 872)">optimisation</text><text font-family="Monospac821 BT,Monospac821 BT_MSFontService,sans-serif" font-weight="400" font-size="28" transform="matrix(1 0 0 1 481.669 905)">input</text><text font-family="Monospac821 BT,Monospac821 BT_MSFontService,sans-serif" font-weight="400" font-size="28" transform="matrix(1 0 0 1 581.356 905)">YAML </text><text font-family="Monospac821 BT,Monospac821 BT_MSFontService,sans-serif" font-weight="400" font-size="28" transform="matrix(1 0 0 1 531.513 938)">file</text><rect x="197.5" y="1620.5" width="1153" height="528" stroke="#A6A6A6" stroke-width="4.58333" stroke-miterlimit="8" fill="#F2F2F2"/><text font-family="Arial,Arial_MSFontService,sans-serif" font-weight="400" font-size="50" transform="matrix(6.12323e-17 -1 1 6.12323e-17 272.382 2121)">POSTPROCESSING</text><rect x="197.5" y="979.5" width="1106" height="431" stroke="#A6A6A6" stroke-width="4.58333" stroke-miterlimit="8" fill="#F2F2F2"/><text font-family="Arial,Arial_MSFontService,sans-serif" font-weight="400" font-size="50" transform="matrix(6.12323e-17 -1 1 6.12323e-17 272.382 1375)">OPTIMISATION</text><rect x="405" y="1040" width="319" height="89" stroke="#4D4943" stroke-width="2.29167" stroke-miterlimit="8" fill="#CFE096"/><text font-family="Monospac821 BT,Monospac821 BT_MSFontService,sans-serif" font-weight="400" font-size="28" transform="matrix(1 0 0 1 489.977 1095)">optimise</text><text font-family="Monospac821 BT,Monospac821 BT_MSFontService,sans-serif" font-weight="400" font-size="28" transform="matrix(1 0 0 1 622.893 1095)">*</text><path d="M433 1276.5C433 1226.52 492.099 1186 565 1186 637.902 1186 697 1226.52 697 1276.5 697 1326.48 637.902 1367 565 1367 492.099 1367 433 1326.48 433 1276.5Z" stroke="#4D4943" stroke-width="2.29167" stroke-miterlimit="8" fill="#FDCA00" fill-rule="evenodd"/><text font-family="Arial,Arial_MSFontService,sans-serif" font-weight="400" font-size="28" transform="matrix(1 0 0 1 513.179 1254)">optimise</text><text font-family="Arial,Arial_MSFontService,sans-serif" font-weight="400" font-size="28" transform="matrix(1 0 0 1 531.513 1287)">using</text><text font-family="Arial,Arial_MSFontService,sans-serif" font-weight="400" font-size="28" transform="matrix(1 0 0 1 523.194 1320)">Gurobi</text><rect x="942" y="1232" width="319" height="89" stroke="#4D4943" stroke-width="2.29167" stroke-miterlimit="8" fill="#CFE096"/><text font-family="Monospac821 BT,Monospac821 BT_MSFontService,sans-serif" font-weight="400" font-size="28" transform="matrix(1 0 0 1 1060.18 1271)">first</text><text font-family="Monospac821 BT,Monospac821 BT_MSFontService,sans-serif" font-weight="400" font-size="28" transform="matrix(1 0 0 1 985.403 1304)">postprocessing</text><rect x="970" y="1437" width="263" height="89" stroke="#4D4943" stroke-width="2.29167" stroke-miterlimit="8" fill="#F06A6A"/><text font-family="Monospac821 BT,Monospac821 BT_MSFontService,sans-serif" font-weight="400" font-size="28" transform="matrix(1 0 0 1 1043.55 1492)">results</text><rect x="346" y="1670" width="756" height="366" fill="#F2F2F2"/><text font-family="Arial,Arial_MSFontService,sans-serif" font-weight="400" font-size="41" transform="matrix(1 0 0 1 379.398 1726)">visualisation</text><text font-family="Arial,Arial_MSFontService,sans-serif" font-weight="400" font-size="41" transform="matrix(1 0 0 1 615.44 1726)">using</text><text font-family="Monospac821 BT,Monospac821 BT_MSFontService,sans-serif" font-weight="400" font-size="41" transform="matrix(1 0 0 1 725.44 1726)">analyse*.py</text><text font-family="Wingdings,Wingdings_MSFontService,sans-serif" font-weight="400" font-size="41" transform="matrix(1 0 0 1 379.398 1841)"></text><text font-family="Arial,Arial_MSFontService,sans-serif" font-weight="400" font-size="41" transform="matrix(1 0 0 1 441.273 1841)">comparison</text><text font-family="Arial,Arial_MSFontService,sans-serif" font-weight="400" font-size="41" transform="matrix(1 0 0 1 665.856 1841)">of </text><text font-family="Arial,Arial_MSFontService,sans-serif" font-weight="400" font-size="41" transform="matrix(1 0 0 1 711.69 1841)">control</text><text font-family="Arial,Arial_MSFontService,sans-serif" font-weight="400" font-size="41" transform="matrix(1 0 0 1 846.898 1841)">strategies</text><text font-family="Wingdings,Wingdings_MSFontService,sans-serif" font-weight="400" font-size="41" transform="matrix(1 0 0 1 379.398 1915)"></text><text font-family="Arial,Arial_MSFontService,sans-serif" font-weight="400" font-size="41" transform="matrix(1 0 0 1 441.273 1915)">pareto</text><text font-family="Arial,Arial_MSFontService,sans-serif" font-weight="400" font-size="41" transform="matrix(1 0 0 1 569.606 1915)">fronts</text><text font-family="Wingdings,Wingdings_MSFontService,sans-serif" font-weight="400" font-size="41" transform="matrix(1 0 0 1 379.398 1989)"></text><text font-family="Arial,Arial_MSFontService,sans-serif" font-weight="400" font-size="41" transform="matrix(1 0 0 1 441.273 1989)">influence</text><text font-family="Arial,Arial_MSFontService,sans-serif" font-weight="400" font-size="41" transform="matrix(1 0 0 1 617.731 1989)">of </text><text font-family="Arial,Arial_MSFontService,sans-serif" font-weight="400" font-size="41" transform="matrix(1 0 0 1 663.565 1989)">duct</text><text font-family="Arial,Arial_MSFontService,sans-serif" font-weight="400" font-size="41" transform="matrix(1 0 0 1 752.94 1989)">height</text><text font-family="Arial,Arial_MSFontService,sans-serif" font-weight="400" font-size="41" transform="matrix(1 0 0 1 865.231 1989)">, </text><text font-family="Arial,Arial_MSFontService,sans-serif" font-weight="400" font-size="41" transform="matrix(1 0 0 1 888.148 1989)">duct</text><text font-family="Arial,Arial_MSFontService,sans-serif" font-weight="400" font-size="41" transform="matrix(1 0 0 1 441.273 2063)">velocity</text><text font-family="Arial,Arial_MSFontService,sans-serif" font-weight="400" font-size="41" transform="matrix(1 0 0 1 578.773 2063)">, </text><text font-family="Arial,Arial_MSFontService,sans-serif" font-weight="400" font-size="41" transform="matrix(1 0 0 1 601.69 2063)">cost</text><text font-family="Arial,Arial_MSFontService,sans-serif" font-weight="400" font-size="41" transform="matrix(1 0 0 1 688.773 2063)">variations</text><rect x="1674" y="1043" width="371" height="89" stroke="#4D4943" stroke-width="2.29167" stroke-miterlimit="8" fill="#CFE096"/><text font-family="Monospac821 BT,Monospac821 BT_MSFontService,sans-serif" font-weight="400" font-size="28" transform="matrix(1 0 0 1 1710.04 1082)">create_monte_carlo</text><text font-family="Monospac821 BT,Monospac821 BT_MSFontService,sans-serif" font-weight="400" font-size="28" transform="matrix(1 0 0 1 1768.18 1115)">_load_cases</text><rect x="1674" y="1184" width="371" height="148" stroke="#4D4943" stroke-width="2.29167" stroke-miterlimit="8" fill="#CFE096"/><text font-family="Monospac821 BT,Monospac821 BT_MSFontService,sans-serif" font-weight="400" font-size="28" transform="matrix(1 0 0 1 1710.04 1252)">plot_reevaluation_</text><text font-family="Monospac821 BT,Monospac821 BT_MSFontService,sans-serif" font-weight="400" font-size="28" transform="matrix(1 0 0 1 1734.95 1285)">many_load_cases</text><rect x="1386" y="425" width="319" height="88" fill="#F2F2F2"/><path d="M1907.79 323.5 1907.79 347.743 1903.21 347.743 1903.21 323.5ZM1919.25 343.16 1905.5 388.993 1891.75 343.16Z"/><path d="M2.29167-1.45353e-05 2.29177 15.649-2.29157 15.649-2.29167 1.45353e-05ZM13.7501 11.0656 0.000360892 56.899-13.7499 11.0658Z" transform="matrix(-1 0 0 1 1905.5 477.5)"/><path d="M2.29167-1.45353e-05 2.29177 15.649-2.29157 15.649-2.29167 1.45353e-05ZM13.7501 11.0656 0.000360892 56.899-13.7499 11.0658Z" transform="matrix(-1 0 0 1 1186.5 477.5)"/><path d="M2.29164-0.0103566 2.35424 13.8408-2.22905 13.8615-2.29164 0.0103566ZM13.7917 9.20569 0.249016 55.1007-13.708 9.32996Z" transform="matrix(-1 0 0 1 1186.75 635.5)"/><path d="M2.29167-1.45353e-05 2.29177 15.649-2.29157 15.649-2.29167 1.45353e-05ZM13.7501 11.0656 0.000360892 56.899-13.7499 11.0658Z" transform="matrix(-1 0 0 1 827.5 477.5)"/><path d="M470.792 323.5 470.792 347.743 466.208 347.743 466.208 323.5ZM482.25 343.16 468.5 388.993 454.75 343.16Z"/><path d="M470.792 477.5 470.792 493.149 466.208 493.149 466.208 477.5ZM482.25 488.566 468.5 534.399 454.75 488.566Z"/><path d="M0-2.29167 101.688-2.29167 101.688 158.227 97.1046 158.227 97.1046 0 99.3963 2.29167 0 2.29167ZM113.146 153.644 99.3963 199.477 85.6463 153.644Z" transform="matrix(1.83697e-16 1 1 -1.83697e-16 827.5 635.5)"/><path d="M0-2.29167 101.688-2.29167 101.688 517.397 97.1046 517.397 97.1046 0 99.3963 2.29167 0 2.29167ZM113.146 512.814 99.3963 558.647 85.6463 512.814Z" transform="matrix(1.83697e-16 1 1 -1.83697e-16 468.5 635.5)"/><path d="M1548.77 635.5 1548.77 737.188 1387.75 737.188 1387.75 732.605 1546.48 732.605 1544.18 734.897 1544.18 635.5ZM1392.33 748.647 1346.5 734.897 1392.33 721.147Z"/><path d="M1907.94 635.5 1907.94 737.188 1387.75 737.188 1387.75 732.605 1905.65 732.605 1903.35 734.896 1903.35 635.5ZM1392.33 748.646 1346.5 734.896 1392.33 721.146Z"/><path d="M2.29167-1.50372e-05 2.29176 13.75-2.29158 13.75-2.29167 1.50372e-05ZM13.7501 9.16658 0.000360892 55-13.7499 9.16676Z" transform="matrix(-1 0 0 1 565.5 1129.5)"/><path d="M1104.98 1526.5 1104.98 1560.15 774.5 1560.15 776.792 1557.86 776.792 1580.01 772.208 1580.01 772.208 1555.57 1102.69 1555.57 1100.39 1557.86 1100.39 1526.5ZM788.25 1575.42 774.5 1621.26 760.75 1575.42Z"/><path d="M697.5 1275.21 901.921 1275.21 901.921 1279.79 697.5 1279.79ZM897.337 1263.75 943.171 1277.5 897.337 1291.25Z"/><path d="M1104.79 1321.5 1104.79 1381.93 1102.5 1381.93 1104.79 1379.64 1104.79 1396.52 1100.21 1396.52 1100.21 1377.34 1102.5 1377.34 1100.21 1379.64 1100.21 1321.5ZM1116.25 1391.94 1102.5 1437.77 1088.75 1391.94Z"/><rect x="837" y="1043" width="401" height="83.0002" stroke="#4D4943" stroke-width="2.29167" stroke-miterlimit="8" fill="#FDCA00"/><text font-family="Monospac821 BT,Monospac821 BT_MSFontService,sans-serif" font-weight="400" font-size="28" transform="matrix(1 0 0 1 879.648 1095)">optimal_preplanning</text><path d="M7.30887e-06-2.29167 71.9064-2.29144 71.9064 2.2919-7.30887e-06 2.29167ZM67.3231-13.7498 113.156 0.000360892 67.323 13.7502Z" transform="matrix(-1 0 0 1 837.656 1085.5)"/><path d="M2045.5 270.208 2130.29 270.208 2130.29 1090.31 2091.33 1090.31 2091.33 1085.73 2128 1085.73 2125.71 1088.02 2125.71 272.5 2128 274.792 2045.5 274.792ZM2095.92 1101.77 2050.08 1088.02 2095.92 1074.27Z"/><path d="M1862.79 1132.5 1862.79 1143.22 1858.21 1143.22 1858.21 1132.5ZM1874.25 1138.64 1860.5 1184.47 1846.75 1138.64Z"/><path d="M1695 2037C1695 2027.06 1703.06 2019 1713 2019L2060 2019C2069.94 2019 2078 2027.06 2078 2037L2078 2109C2078 2118.94 2069.94 2127 2060 2127L1713 2127C1703.06 2127 1695 2118.94 1695 2109Z" fill="#1DB6FE" fill-rule="evenodd"/><text fill="#FFFFFF" font-family="Arial,Arial_MSFontService,sans-serif" font-weight="400" font-size="73" transform="matrix(1 0 0 1 1789.24 2100)">YAML</text><rect x="1695" y="1602" width="383" height="108" fill="#CFE096"/><text font-family="Monospac821 BT,Monospac821 BT_MSFontService,sans-serif" font-weight="400" font-size="73" transform="matrix(1 0 0 1 1754.08 1683)">PYTHON</text><rect x="1695" y="1741" width="383" height="108" fill="#FDCA00"/><text font-family="Monospac821 BT,Monospac821 BT_MSFontService,sans-serif" font-weight="400" font-size="73" transform="matrix(1 0 0 1 1776.14 1822)">PYOMO</text><rect x="1695" y="1880" width="383" height="108" fill="#F06A6A"/><text font-family="Monospac821 BT,Monospac821 BT_MSFontService,sans-serif" font-weight="400" font-size="73" transform="matrix(1 0 0 1 1798.2 1961)">HDF5</text><path d="M1862.3 1332.5 1862.3 1484.04 1274.75 1484.04 1274.75 1479.45 1860 1479.45 1857.71 1481.74 1857.71 1332.5ZM1279.33 1495.49 1233.5 1481.74 1279.33 1467.99Z"/><path d="M1.97085e-06-2.29167 41.9638-2.29163 41.9638 2.2917-1.97085e-06 2.29167ZM37.3806-13.75 83.2138 0.000360892 37.3804 13.75Z" transform="matrix(1.83697e-16 1 1 -1.83697e-16 565.5 957.5)"/><path d="M1189.08 779.5 1189.08 897.858 755.75 897.858 755.75 893.275 1186.79 893.275 1184.5 895.567 1184.5 779.5ZM760.333 909.317 714.5 895.567 760.333 881.817Z"/><path d="M0-2.29167 116.199-2.29167 116.199 364.354 111.616 364.354 111.616 0 113.907 2.29167 0 2.29167ZM127.657 359.771 113.907 405.604 100.157 359.771Z" transform="matrix(1.83697e-16 1 1 -1.83697e-16 565.5 1367.5)"/></g></svg>